<svg xmlns="http://www.w3.org/2000/svg" width="50" height="50" viewBox="0 0 50 50">
    <g fill="none" fill-rule="evenodd">
        <path fill="#FFF" d="M-250-490H70v4890h-320z"/>
        <path fill="#1A1A1A" stroke="#FFF" stroke-width="3" d="M1.5 1.5h47v47h-47z"/>
        <path fill="#E73B35" d="M40.227 30.78a5.327 5.327 0 0 1-5.332 5.331H33.32l1.291-9.2c.124-.913.124-1.86 0-2.743-.681-4.846-4.876-8.502-9.763-8.502a9.83 9.83 0 0 0-1.38.1c-5.392.753-9.166 5.753-8.407 11.145l1.285 9.2h-1.57c-.07 0-.148 0-.219-.006a5.327 5.327 0 0 1-5.113-5.326 5.325 5.325 0 0 1 3.744-5.089 11.646 11.646 0 1 1 23.182-1.765c.084.58.118 1.179.107 1.765a5.33 5.33 0 0 1 3.75 5.09"/>
    </g>
</svg>
