<svg xmlns="http://www.w3.org/2000/svg" xmlns:xlink="http://www.w3.org/1999/xlink" width="20" height="20" viewBox="0 0 20 20">
    <defs>
        <path id="a" d="M0 0h20v20H0z"/>
    </defs>
    <g fill="none" fill-rule="evenodd">
        <path fill="#FFF" d="M-140-4654h320V236h-320z"/>
        <g>
            <mask id="b" fill="#fff">
                <use xlink:href="#a"/>
            </mask>
            <path fill="#1A1A1A" d="M12.847 7.793a.64.64 0 1 1 0-1.28.64.64 0 0 1 0 1.28zM10 12.74a2.74 2.74 0 1 1 0-5.48 2.74 2.74 0 0 1 0 5.48zm4.157-5.887a1.665 1.665 0 0 0-.397-.613 1.665 1.665 0 0 0-.613-.397c-.19-.073-.47-.16-.99-.183-.564-.027-.734-.033-2.157-.033h-.477c-.996 0-1.186.006-1.676.03-.52.023-.804.11-.99.183-.25.097-.427.213-.614.4a1.646 1.646 0 0 0-.4.613c-.073.187-.16.47-.183.99-.027.564-.033.73-.033 2.154 0 1.426.006 1.593.033 2.156.023.52.11.804.183.99.097.25.214.427.4.614.187.186.364.3.614.396.186.074.47.16.99.187.56.023.73.03 2.153.03s1.593-.007 2.157-.03c.52-.026.8-.113.99-.187.246-.096.426-.21.613-.396.187-.187.3-.364.397-.614.073-.186.16-.47.183-.99.027-.563.033-.73.033-2.153s-.006-1.593-.033-2.157c-.023-.52-.11-.8-.183-.99zM15.3 12.2c-.027.567-.117.953-.247 1.294-.136.35-.32.646-.616.943-.297.296-.594.48-.944.616-.34.134-.726.224-1.293.247-.57.027-.75.033-2.2.033-1.45 0-1.63-.006-2.2-.033-.567-.023-.953-.113-1.293-.247-.35-.136-.65-.32-.944-.616a2.626 2.626 0 0 1-.616-.943c-.134-.34-.22-.727-.247-1.294-.027-.57-.033-.75-.033-2.2 0-1.45.006-1.63.033-2.2.023-.567.113-.953.247-1.293.136-.35.32-.65.616-.944.297-.296.594-.48.944-.616.34-.134.726-.224 1.293-.247.57-.027.753-.033 2.2-.033s1.63.006 2.197.033c.57.023.956.113 1.296.247.35.136.647.32.944.616.296.294.48.594.616.944.13.34.22.726.247 1.293.027.57.033.75.033 2.2 0 1.45-.006 1.63-.033 2.2zM0 20h20V0H0v20z" mask="url(#b)"/>
            <path fill="#1A1A1A" d="M11.777 10a1.776 1.776 0 1 1-3.554.001A1.776 1.776 0 0 1 11.776 10" mask="url(#b)"/>
        </g>
    </g>
</svg>
