<svg xmlns="http://www.w3.org/2000/svg" xmlns:xlink="http://www.w3.org/1999/xlink" width="303" height="31" viewBox="0 0 303 31">
    <defs>
        <path id="a" d="M0 0h23.416v29.942H0z"/>
        <path id="c" d="M0 0h23.629v29.942H0z"/>
        <path id="e" d="M0 29.97h302.88V0H0z"/>
    </defs>
    <g fill="none" fill-rule="evenodd">
        <path fill="#FFF" d="M-135-50h1440v6308H-135z"/>
        <path fill="#131313" d="M58.189.352l-9.896 13.137V.352H41v29.941h7.293V17.071L58.36 30.293h9.384l-12.327-14.97L67.743.352zM91.605.352L84.184 23.17 76.763.35H69l10.62 29.942h9.128L99.368.352zM110.377.352L100 30.293h7.74l1.66-5.018h10.717l1.659 5.018h7.783L119.224.352h-8.847zm4.153 9l3.53 10.632H111l3.53-10.632z"/>
        <g transform="translate(0 .352)">
            <path fill="#131313" d="M141 24.452h3.241c2.787 0 4.976-.853 6.569-2.56 1.592-1.705 2.388-3.994 2.388-6.866 0-2.872-.796-5.16-2.388-6.867-1.593-1.706-3.782-2.559-6.569-2.559H141v18.852zM143.535 0c4.777 0 8.7 1.386 11.772 4.159 3.07 2.772 4.606 6.37 4.606 10.79 0 4.422-1.535 8.026-4.606 10.813-3.071 2.787-6.995 4.18-11.772 4.18H133V0h10.535z"/>
            <g transform="translate(165)">
                <mask id="b" fill="#fff">
                    <use xlink:href="#a"/>
                </mask>
                <path fill="#131313" d="M7 5v7.208h4.521c1.109 0 1.983-.326 2.623-.98.64-.655.96-1.515.96-2.581 0-1.067-.327-1.94-.981-2.623C13.468 5.34 12.6 5 11.52 5H7zm.293 13.298v11.644H0V0h11.815c3.468 0 6.17.896 8.103 2.687 1.934 1.791 2.9 3.953 2.9 6.483 0 1.735-.526 3.427-1.577 5.076-1.053 1.65-2.773 2.815-5.161 3.497l7.336 12.199h-8.53l-6.74-11.644h-.853z" mask="url(#b)"/>
            </g>
            <path fill="#131313" d="M201 19.633h7.06L204.53 9 201 19.633zm10.776 10.309l-1.66-5.02H199.4l-1.658 5.02H190L200.377 0h8.847l10.335 29.942h-7.783z"/>
            <g transform="translate(222)">
                <mask id="d" fill="#fff">
                    <use xlink:href="#c"/>
                </mask>
                <path fill="#131313" d="M0 5.545V0h23.629v5.545h-8.19v24.397H8.147V5.545z" mask="url(#d)"/>
            </g>
            <path fill="#131313" d="M255.976 25.988c0 1.124-.384 2.069-1.152 2.836-.767.768-1.713 1.152-2.836 1.152-1.124 0-2.069-.384-2.836-1.152-.768-.767-1.152-1.712-1.152-2.836 0-1.123.384-2.069 1.152-2.836.767-.768 1.712-1.152 2.836-1.152 1.123 0 2.069.384 2.836 1.152.768.767 1.152 1.713 1.152 2.836"/>
            <mask id="f" fill="#fff">
                <use xlink:href="#e"/>
            </mask>
            <path fill="#131313" d="M261 29.942h7.293V0H261zM293.347 21.134c1.401-1.527 2.103-3.567 2.103-6.122 0-2.554-.702-4.594-2.103-6.122-1.403-1.526-3.277-2.29-5.622-2.29-2.347 0-4.22.764-5.622 2.29-1.402 1.528-2.103 3.568-2.103 6.122 0 2.555.7 4.595 2.103 6.122 1.401 1.527 3.275 2.29 5.622 2.29 2.345 0 4.22-.763 5.622-2.29m-15.995 4.56C274.45 22.862 273 19.281 273 14.95c0-4.33 1.45-7.905 4.352-10.723 2.9-2.818 6.454-4.227 10.66-4.227s7.746 1.41 10.62 4.227c2.873 2.818 4.31 6.392 4.31 10.723 0 4.33-1.444 7.912-4.331 10.744-2.888 2.832-6.428 4.248-10.62 4.248-4.192 0-7.739-1.416-10.64-4.248" mask="url(#f)"/>
        </g>
        <path fill="#FFF" d="M0 30.352h30V.38H0z"/>
        <path fill="#F2332D" d="M9.492 20.869H30V.38H9.492z"/>
        <path fill="#E4C20E" d="M0 30.352h30V18.82H0z"/>
        <path fill="#6273F4" d="M18.457 30.352H30V18.82H18.457z"/>
        <path fill="#000" d="M0 30.352h30V.382H0v29.97zM11.543 18.82h16.406V2.43H11.543v16.39zm-9.492 0h7.441V2.43H2.051v16.39zm18.457 9.483h7.441v-7.434h-7.441v7.434zm-18.457 0h16.406v-7.434H2.051v7.434z"/>
    </g>
</svg>
