<svg xmlns="http://www.w3.org/2000/svg" xmlns:xlink="http://www.w3.org/1999/xlink" width="20" height="20" viewBox="0 0 20 20">
    <defs>
        <path id="a" d="M0 0h20v20H0z"/>
    </defs>
    <g fill="none" fill-rule="evenodd">
        <path fill="#FFF" d="M-50-4654h320V236H-50z"/>
        <g>
            <mask id="b" fill="#fff">
                <use xlink:href="#a"/>
            </mask>
            <path fill="#1A1A1A" d="M9.993 8.65c.61 0 1.107-.48 1.107-1.07 0-.59-.497-1.067-1.107-1.067S8.887 6.99 8.887 7.58s.496 1.07 1.106 1.07zm2.584 5.06a.737.737 0 0 1 0 1.07.806.806 0 0 1-1.107 0L10 13.36l-1.467 1.42a.806.806 0 0 1-1.11 0 .737.737 0 0 1 0-1.07l1.494-1.443a5.105 5.105 0 0 1-1.55-.62.742.742 0 0 1-.247-1.044.8.8 0 0 1 1.08-.237 3.504 3.504 0 0 0 3.6 0 .8.8 0 0 1 1.08.237c.23.354.12.82-.247 1.044a5.09 5.09 0 0 1-1.553.62l1.497 1.443zM9.993 5c1.474 0 2.674 1.157 2.674 2.58s-1.2 2.58-2.674 2.58c-1.473 0-2.673-1.157-2.673-2.58S8.52 5 9.993 5zM0 20h20V0H0v20z" mask="url(#b)"/>
            <path fill="#1A1A1A" d="M9.993 6.513c-.61 0-1.106.477-1.106 1.067s.496 1.07 1.106 1.07c.61 0 1.107-.48 1.107-1.07 0-.59-.497-1.067-1.107-1.067m0 0c-.61 0-1.106.477-1.106 1.067s.496 1.07 1.106 1.07c.61 0 1.107-.48 1.107-1.07 0-.59-.497-1.067-1.107-1.067" mask="url(#b)" opacity=".11"/>
        </g>
    </g>
</svg>
