<svg xmlns="http://www.w3.org/2000/svg" xmlns:xlink="http://www.w3.org/1999/xlink" width="20" height="20" viewBox="0 0 20 20">
    <defs>
        <path id="a" d="M0 0h20v20H0z"/>
    </defs>
    <g fill="none" fill-rule="evenodd">
        <path fill="#FFF" d="M-20-4654h320V236H-20z"/>
        <g>
            <mask id="b" fill="#fff">
                <use xlink:href="#a"/>
            </mask>
            <path fill="#1A1A1A" d="M15.52 6.784c-.524 2.476-1.048 4.952-1.576 7.426-.124.588-.536.74-1.02.384-.81-.596-1.62-1.196-2.43-1.794l-.122-.086c-.438.426-.87.846-1.3 1.268a.677.677 0 0 1-.536.218c-.146-.008-.228-.072-.274-.212-.328-1.022-.662-2.04-.99-3.062-.032-.1-.078-.148-.18-.18-.774-.236-1.548-.478-2.322-.724a1.32 1.32 0 0 1-.34-.158c-.16-.106-.182-.282-.04-.408a1.56 1.56 0 0 1 .452-.282c.948-.376 1.9-.74 2.852-1.106l7.242-2.796c.458-.178.812.072.764.568-.03.318-.112.63-.18.944zM0 20h20V0H0v20z" mask="url(#b)"/>
            <path fill="#000" d="M13.7 6.98c-.034.064-.056.142-.106.188-.82.746-1.644 1.488-2.466 2.23-.744.67-1.486 1.342-2.232 2.01a.404.404 0 0 0-.148.298c-.046.562-.1 1.122-.152 1.684-.002.022-.01.046-.014.068l-.028.008-.504-1.548c-.128-.386-.25-.776-.384-1.16-.038-.114-.02-.168.084-.232 1.818-1.142 3.632-2.288 5.448-3.432a.984.984 0 0 1 .272-.134c.07-.018.154.012.23.02" mask="url(#b)"/>
        </g>
    </g>
</svg>
