<svg xmlns="http://www.w3.org/2000/svg" xmlns:xlink="http://www.w3.org/1999/xlink" width="20" height="20" viewBox="0 0 20 20">
    <defs>
        <path id="a" d="M0 0h20v20H0z"/>
    </defs>
    <g fill="none" fill-rule="evenodd">
        <path fill="#FFF" d="M-80-4654h320V236H-80z"/>
        <g>
            <mask id="b" fill="#fff">
                <use xlink:href="#a"/>
            </mask>
            <path fill="#1A1A1A" d="M14.847 13.283l-1.424.017s-.306.06-.71-.21c-.533-.36-1.036-1.293-1.426-1.17-.397.123-.387.964-.387.964s.003.176-.087.273c-.096.103-.29.126-.29.126h-.636s-1.407.08-2.647-1.183c-1.35-1.383-2.543-4.123-2.543-4.123s-.07-.18.003-.267c.087-.097.313-.103.313-.103l1.524-.01s.146.023.246.096a.47.47 0 0 1 .134.177s.246.614.573 1.163c.637 1.08.933 1.317 1.15 1.204.313-.17.22-1.527.22-1.527s.007-.493-.16-.713c-.127-.17-.367-.22-.473-.234-.087-.013.056-.206.236-.296.277-.13.76-.137 1.334-.134.446.007.573.034.746.074.527.126.347.606.347 1.76 0 .37-.067.89.207 1.063.116.074.4.01 1.116-1.18.337-.566.59-1.23.59-1.23s.057-.117.144-.167c.086-.053.206-.036.206-.036l1.603-.01s.484-.057.56.156c.084.224-.18.747-.836 1.607-1.073 1.407-1.193 1.273-.3 2.09.853.777 1.03 1.153 1.057 1.2.353.577-.39.623-.39.623zM0 20h20V0H0v20z" mask="url(#b)"/>
        </g>
    </g>
</svg>
